<mxfile host="app.diagrams.net" modified="2023-04-11T08:51:41.387Z" agent="Mozilla/5.0 (Macintosh; Intel Mac OS X 10_15_7) AppleWebKit/537.36 (KHTML, like Gecko) Chrome/110.0.0.0 Safari/537.36" version="21.1.4" etag="nO8oxS_ymDMbG26-Hbz3" type="github">
  <diagram name="Page-1" id="69gkdBFeH7qVik3eg3ug">
    <mxGraphModel>
      <root>
        <mxCell id="0" />
        <mxCell id="1" parent="0" />
      </root>
    </mxGraphModel>
  </diagram>
</mxfile>
